<?xml version="1.0" encoding="UTF-8"?>
<svg id="Layer_2" data-name="Layer 2" xmlns="http://www.w3.org/2000/svg" viewBox="0 0 507.48 384.86">
  <defs>
    <style>
      .cls-1 {
        fill: #1d1d1b;
      }

      .cls-2 {
        fill: #a2b780;
      }
    </style>
  </defs>
  <g id="Layer_1-2" data-name="Layer 1">
    <g>
      <path class="cls-2" d="M400.17,370.95c-14.49,23.75-56.74,10.04-142.53,9.24-100.03-.93-132.74,13.56-149.57-9.24-2.41-3.26-3.96-7.52-3.96-7.52-6.98-16.52-2.56-30.92.31-46.94,0,0,6.29-35.11,1.97-79.82-.26-2.71-.95-9.24-1.79-19.18-1.24-14.56-1.99-27.03-2.26-31.69-2.57-43.39-1.27-53.46,5.73-61.2,11.67-12.88,29.72-8.86,73.03-7.47,38.12,1.22,76.25-2.38,114.38-3.08,76.46-1.39,93.46-3.14,104.7,10.56,1.06,1.29,1.77,2.52,2.24,3.26,9.92,15.89,5.06,28.44,3.68,64.68-.52,13.74-.17,20.88-.94,36.21,0,0-.69,13.65-1.79,22.93-.02.18-.1.75-.18,1.56-2.16,21.42-.55,28.53-.98,72.9-.27,28.1-.44,42.2-2.03,44.81Z"/>
      <path class="cls-1" d="M411.95,129.73c-.55-4.86-1.56-9.53-2.94-14.02,21.11-20.06,16.06-58.06,5.32-84.26-29.39-71.71-121.93,39.93-154.7,83.52-3.04-16.94-6.62-33.8-11.02-50.55-4.87-18.96-9.83-38.19-24.06-52.3-20.38-20.33-59.13-11.35-81.43-.09-27,13.64-39.03,46.62-22.6,71.82-13.58,10.62-22.58,26.65-26.25,45.89H6.51c-7.08,0-9.64,8.97-1.2,8.97h87.5c-2.2,16.57-2.48,35.71,9.72,47.81,9.19,9.15,27.64,7.87,39.03,5.59,37.1-7.42,71.34-24.37,100.25-48.27-26.25,40.3-28.54,91.13-52.23,133.08-3.59,6.23,9.18,6.59,12.02,1.65,23.42-41.4,25.34-92.14,51.51-131.8,1.37,0,2.67-.09,4.04-.37,15.97,49.01,23.96,107.71-17.63,146.55-5.13,4.86,7.26,4.03,9.93,1.55,40.48-37.82,37.64-91.96,23.41-140.95,23.87,17.49,52.24,31.32,80.34,34.99,31.03,4.03,56.28-10.99,58.85-42.4.19-2.48.26-4.95.26-7.34h91.45c2.22-.47,3.79-2.46,3.72-4.68-.07-2.11-1.61-3.94-3.72-4.38h-91.81ZM131.09,33.46C143.95,6.36,183.24.22,207.76,12.85c12.48,6.42,18.09,21.34,22.3,33.8,6.33,18.59,10.92,37.92,14.61,57.33-24.06-19.78-50.69-35.18-83.74-34.07-11.02.36-20.84,2.84-29.29,6.96-7.43-11.54-8.63-26.2-.55-43.42ZM126.04,90.88c11.58,11.54,31.58,15.66,46.28,20.06,20.93,6.32,41.95,12.55,62.89,18.88H106.39c2.57-16.41,9.38-29.77,19.65-38.94ZM176.72,175.06c-17.26,7.23-40.4,15.57-58.85,8.88-16.9-6.13-13.5-31.33-12.49-45.16h130.19c-17.62,15.03-37.19,27.12-58.85,36.28ZM245.76,120.84c-.64,1.09-1.28,2.19-1.83,3.29-25.25-7.51-50.5-15.02-75.66-22.72-12.76-3.94-23.69-9.98-31.31-18.05,11.28-5.76,25.16-7.78,41.31-4.95,26.36,4.59,48.57,23.36,68.21,41.69-.36.27-.55.45-.73.73ZM393.77,169.83c-11.57,21.53-49.94,9.35-65.28,2.48-19.74-8.88-39.2-19.88-56.2-33.62h127.36c.83,10.81-.75,21.61-5.88,31.13ZM376.42,121.57c-33.15,4.29-67.29,4.2-100.72,4.03-.09-.73-.19-1.46-.45-2.11,18.27-9.8,36.82-18.97,55.73-27.57,20.29-9.17,42.23-12.27,57.84,6.32,3.22,3.84,5.41,8.34,6.97,13.1-4.86,3.01-11.19,5.21-19.37,6.23ZM397.72,123.4c.46,2.11.73,4.21,1.01,6.32h-25.44c7.9-.92,15.51-2.58,22.41-5.4.73-.28,1.38-.65,2.01-.92ZM364.21,79.72c-18.09-.83-36.91,9.89-52.61,17.13-14.14,6.59-28.1,13.64-41.87,21.06-.09,0-.09-.09-.19-.09,14.59-19.69,30.48-38.38,47.74-55.96,19.47-19.8,56.46-63.2,81.9-31.51,8.44,10.52,9.1,27.29,10.38,40.11,1.38,13.74.92,26.2-4.59,35.44-7.63-14.84-21.11-25.37-40.76-26.19Z"/>
    </g>
  </g>
</svg>